<svg width="36" height="48" viewBox="0 0 36 48" fill="none" xmlns="http://www.w3.org/2000/svg">
<path d="M20.2002 12.0103C20.5169 11.8494 20.8764 11.7931 21.2272 11.8493C21.5566 11.873 21.8737 11.9838 22.1462 12.1703" fill="white"/>
<path d="M17.0759 12.0103C16.7592 11.8494 16.3996 11.7931 16.0489 11.8493C15.7194 11.8733 15.4023 11.9844 15.1299 12.1713" fill="white"/>
<path d="M27.0381 38.2949L29.6711 45.3289C31.9597 44.2465 34.0892 42.8556 36.0001 41.1949C35.5381 39.8389 35.1381 38.8129 35.1381 38.8129L27.0381 38.2949Z" fill="#DA5742"/>
<path d="M6.356 45.4644L9.1 38.1094L1 38.6274C1 38.6364 0.518 39.8764 0 41.4304C1.92373 43.06 4.06243 44.4174 6.356 45.4644Z" fill="#DA5742"/>
<path d="M27.0381 38.2949L27.9481 40.6869L35.9821 41.1869C35.5451 39.9289 35.1381 38.8129 35.1381 38.8129L27.0381 38.2949Z" fill="#C43D28"/>
<path d="M9.18521 37.8496L8.27521 40.2416L0.116211 41.0366C0.553211 39.7866 1.08921 38.3676 1.08921 38.3676L9.18521 37.8496Z" fill="#C43D28"/>
<path d="M8.84677 27.2769C5.30977 28.8879 1.43777 33.8509 0.00976562 39.6709H6.32977L5.28477 44.9549C9.17858 46.9451 13.4898 47.9809 17.8628 47.9769C22.2528 47.9842 26.5807 46.9405 30.4848 44.9329L29.3778 40.3539L35.7688 39.7829C35.7598 39.7829 34.2868 31.5709 27.5478 27.6829C22.1468 24.5769 13.8278 25.0409 8.84677 27.2769Z" fill="#3D5CFF"/>
<path d="M8.05195 33.6816L4.29395 39.6716L6.42695 39.6626L8.05195 33.6816Z" fill="#224BF4"/>
<path d="M29.3771 40.3496L31.2771 40.1886L27.0381 32.9316L29.3771 40.3496Z" fill="#224BF4"/>
<path d="M6.4092 39.7618C6.38704 39.7552 6.36816 39.7406 6.35631 39.7208C6.34445 39.701 6.34048 39.6774 6.3452 39.6548L8.1322 33.0308C8.13874 33.0086 8.15338 32.9897 8.1732 32.9779C8.19303 32.966 8.21658 32.9621 8.2392 32.9668C8.26098 32.9737 8.27939 32.9885 8.29086 33.0083C8.30232 33.0281 8.306 33.0514 8.3012 33.0738L6.5162 39.6988C6.51113 39.7162 6.50066 39.7317 6.48628 39.7428C6.47191 39.7539 6.45437 39.7602 6.4362 39.7608L6.4092 39.7618Z" fill="#1F1F39"/>
<path d="M29.2068 40.3491L26.9218 32.9321C26.9181 32.9217 26.9165 32.9105 26.9171 32.8994C26.9178 32.8883 26.9207 32.8774 26.9256 32.8674C26.9306 32.8574 26.9375 32.8485 26.9459 32.8413C26.9544 32.834 26.9642 32.8285 26.9748 32.8251C26.9853 32.8214 26.9965 32.8198 27.0076 32.8205C27.0187 32.8211 27.0296 32.824 27.0396 32.8289C27.0496 32.8339 27.0584 32.8408 27.0657 32.8492C27.073 32.8577 27.0784 32.8675 27.0818 32.8781L29.3758 40.2961C29.3796 40.3067 29.3811 40.3179 29.3804 40.3291C29.3797 40.3403 29.3767 40.3512 29.3717 40.3612C29.3666 40.3712 29.3596 40.38 29.351 40.3873C29.3425 40.3945 29.3325 40.3999 29.3218 40.4031C29.3038 40.4031 29.2948 40.4121 29.2858 40.4121C29.2677 40.4113 29.2503 40.4048 29.2361 40.3935C29.2219 40.3822 29.2117 40.3666 29.2068 40.3491Z" fill="#1F1F39"/>
<path d="M11.6068 12.7147C11.6068 12.7147 9.51778 12.7147 8.95578 11.8047C8.79976 11.5575 8.74014 11.2617 8.78828 10.9734C8.83641 10.6851 8.98894 10.4247 9.21678 10.2417C8.90845 9.83813 8.69929 9.36778 8.60619 8.86855C8.51308 8.36933 8.53863 7.8552 8.68078 7.36766C8.86961 6.9183 9.20612 6.54682 9.63468 6.31462C10.0633 6.08243 10.5582 6.00342 11.0378 6.09066C11.0378 6.09066 9.83278 3.95766 11.3068 2.35966C13.1068 0.395662 16.1268 2.35966 16.1268 2.35966C16.1849 2.00237 16.3686 1.67754 16.6449 1.44362C16.9211 1.20971 17.2718 1.08206 17.6338 1.08366C18.9338 1.08366 18.9338 1.86966 18.9338 1.86966C19.3104 1.40309 19.8181 1.06007 20.3915 0.884858C20.965 0.709643 21.5777 0.710271 22.1508 0.886662C25.1588 1.77066 24.6408 5.10866 24.6408 5.10866C24.8174 5.07168 24.9996 5.07043 25.1767 5.10498C25.3538 5.13953 25.5222 5.20918 25.672 5.30983C25.8218 5.41048 25.9499 5.5401 26.0487 5.69103C26.1476 5.84196 26.2153 6.01116 26.2478 6.18866C26.3665 6.55575 26.3393 6.95448 26.1717 7.30199C26.004 7.6495 25.709 7.91906 25.3478 8.05466C25.3478 8.05466 26.5618 7.85466 26.8648 8.84066C26.9942 9.25288 26.9862 9.69601 26.8419 10.1033C26.6976 10.5105 26.4249 10.8599 26.0648 11.0987L25.3598 14.5357L11.8988 15.0887L11.6068 12.7147Z" fill="#1F1F39"/>
<path d="M9.27872 12.41C7.82372 13.08 7.67172 15.097 8.76972 16.365C9.86772 17.633 12.6347 17.338 12.6347 17.338L12.2327 12.803C11.807 12.5074 11.317 12.3175 10.8032 12.2492C10.2895 12.1808 9.76689 12.236 9.27872 12.41Z" fill="#C43D28"/>
<path d="M26.7198 12.4098C28.1748 13.0788 28.3268 15.0968 27.2288 16.3638C26.1308 17.6308 23.3638 17.3368 23.3638 17.3368L24.1048 12.7398C24.4682 12.4498 24.9046 12.2656 25.3659 12.2074C25.8272 12.1492 26.2957 12.2192 26.7198 12.4098Z" fill="#C43D28"/>
<path d="M24.1499 16.4001C24.2166 15.8648 24.4236 15.3567 24.7499 14.9271C25.1782 14.3335 25.7889 13.8963 26.4889 13.6821C26.503 13.678 26.5177 13.6767 26.5323 13.6786C26.5468 13.6804 26.5609 13.6852 26.5735 13.6927C26.5861 13.7002 26.597 13.7103 26.6055 13.7222C26.614 13.7342 26.6199 13.7478 26.6229 13.7621C26.6271 13.7762 26.6283 13.791 26.6265 13.8055C26.6247 13.8201 26.6198 13.8341 26.6123 13.8467C26.6048 13.8593 26.5947 13.8702 26.5828 13.8787C26.5708 13.8872 26.5573 13.8931 26.5429 13.8961C25.8956 14.0961 25.3293 14.4981 24.9269 15.0431C24.6252 15.4393 24.4312 15.9068 24.3639 16.4001C24.3634 16.4284 24.352 16.4553 24.332 16.4752C24.312 16.4952 24.2851 16.5066 24.2569 16.5071C24.2287 16.5066 24.2018 16.4952 24.1818 16.4752C24.1619 16.4553 24.1504 16.4284 24.1499 16.4001V16.4001Z" fill="#1F1F39"/>
<path d="M12.1258 16.4005C12.0578 15.9079 11.8651 15.4408 11.5658 15.0435C11.1653 14.4968 10.5971 14.0958 9.94781 13.9015C9.91995 13.8934 9.89613 13.8751 9.88097 13.8504C9.86582 13.8256 9.86041 13.7961 9.86581 13.7675C9.87459 13.7397 9.89326 13.7159 9.9183 13.7008C9.94335 13.6857 9.97304 13.6803 10.0018 13.6855C10.7036 13.895 11.3157 14.3319 11.7418 14.9275C12.0718 15.355 12.2792 15.8642 12.3418 16.4005C12.3418 16.4146 12.339 16.4285 12.3337 16.4415C12.3283 16.4545 12.3204 16.4663 12.3105 16.4762C12.3005 16.4861 12.2887 16.494 12.2758 16.4994C12.2628 16.5048 12.2489 16.5075 12.2348 16.5075C12.2208 16.5075 12.2068 16.5048 12.1939 16.4994C12.1809 16.494 12.1691 16.4861 12.1591 16.4762C12.1492 16.4663 12.1413 16.4545 12.136 16.4415C12.1306 16.4285 12.1278 16.4146 12.1278 16.4005H12.1258Z" fill="#1F1F39"/>
<path d="M14.9646 21.4253L14.5986 26.4953C14.5986 26.4953 15.1076 27.6113 17.7986 27.6113C20.7176 27.6113 21.5206 26.4953 21.5206 26.4953L21.3826 21.5013C21.3826 21.5013 23.2036 21.2063 24.0826 17.9223C24.6084 15.9049 24.7565 13.8077 24.5196 11.7363C24.5196 11.7363 20.2196 12.4053 18.7626 10.6203C17.3056 8.83535 15.8366 7.04535 13.7236 7.93835C11.6106 8.83135 11.8756 14.5883 12.4296 17.3283C12.7784 18.9448 13.6737 20.3917 14.9646 21.4253Z" fill="#DA5742"/>
<path d="M15.9109 14.5886C15.7197 14.5708 15.5432 14.4785 15.4195 14.3316C15.2958 14.1847 15.2349 13.995 15.2499 13.8036C15.2346 13.612 15.2954 13.4221 15.4191 13.2749C15.5428 13.1278 15.7195 13.0354 15.9109 13.0176C16.1023 13.0354 16.2789 13.1278 16.4027 13.2749C16.5264 13.4221 16.5872 13.612 16.5719 13.8036C16.5869 13.995 16.526 14.1847 16.4023 14.3316C16.2786 14.4785 16.1021 14.5708 15.9109 14.5886Z" fill="#1F1F39"/>
<path d="M20.7229 14.5886C20.5317 14.5708 20.3552 14.4785 20.2315 14.3316C20.1078 14.1847 20.0469 13.995 20.0619 13.8036C20.0466 13.612 20.1074 13.4221 20.2311 13.2749C20.3548 13.1278 20.5315 13.0354 20.7229 13.0176C20.9143 13.0354 21.091 13.1278 21.2147 13.2749C21.3384 13.4221 21.3992 13.612 21.3839 13.8036C21.3989 13.995 21.338 14.1847 21.2143 14.3316C21.0906 14.4785 20.9141 14.5708 20.7229 14.5886Z" fill="#1F1F39"/>
<path d="M17.811 14.8832C18.034 15.3292 18.611 15.1062 18.611 15.1062C18.611 15.1062 18.031 14.9542 18.031 14.5062C18.031 14.0582 17.99 12.5352 17.99 12.5352C17.8005 13.3025 17.74 14.096 17.811 14.8832Z" fill="#1F1F39"/>
<path d="M14.7588 25.1258C14.8038 25.1128 19.5878 23.2558 20.4898 22.4078C20.4898 21.8898 20.5078 21.5078 20.5078 21.5078C19.566 21.911 18.5362 22.0646 17.5178 21.9538C16.639 21.9576 15.7691 21.7777 14.9638 21.4258C14.9728 21.8808 14.8038 24.9428 14.7588 25.1258Z" fill="#C43D28"/>
<path d="M21.9268 16.5252C21.1428 16.5252 20.5078 16.1262 20.5078 15.6332C20.5078 15.1402 21.1428 14.7402 21.9268 14.7402C22.7108 14.7402 23.3468 15.1402 23.3468 15.6332C23.3468 16.1262 22.7078 16.5252 21.9268 16.5252Z" fill="#C43D28"/>
<path d="M14.42 16.5252C13.636 16.5252 13.001 16.1262 13.001 15.6332C13.001 15.1402 13.636 14.7402 14.42 14.7402C15.204 14.7402 15.84 15.1402 15.84 15.6332C15.84 16.1262 15.201 16.5252 14.42 16.5252Z" fill="#C43D28"/>
<path d="M18.3019 16.731C18.6849 16.5701 19.0453 16.36 19.3739 16.106C19.3739 16.106 19.5529 16.017 19.6419 16.106C19.5739 16.3711 19.4515 16.6191 19.2825 16.8343C19.1134 17.0495 18.9014 17.2272 18.6599 17.356C18.4184 17.4359 18.1575 17.4356 17.9161 17.355C17.6748 17.2744 17.466 17.118 17.3209 16.909C17.0529 16.552 17.4099 16.641 17.4099 16.641C17.6966 16.7381 18.0016 16.7688 18.3019 16.731Z" fill="white"/>
<path d="M14.9108 19.5858C16.2498 19.9428 15.9998 20.5678 16.5798 20.2998C17.1598 20.0318 17.3298 19.4998 18.5078 19.6748C19.6858 19.8498 19.4268 20.4748 20.1768 20.3888C21.1465 20.0945 22.0334 19.5762 22.7658 18.8758C23.3548 18.3358 24.1848 17.4438 24.1848 17.4438C24.1848 17.4438 23.6488 21.1928 20.6678 22.0858C18.4268 22.7548 15.2498 22.4428 13.8298 20.3858C13.0799 19.4504 12.563 18.3501 12.3218 17.1758C12.3218 17.1758 13.5718 19.2288 14.9108 19.5858Z" fill="#1F1F39"/>
<path d="M16.276 19.1412C16.2631 19.134 16.2521 19.124 16.2435 19.112C16.235 19.0999 16.2292 19.0861 16.2266 19.0716C16.2241 19.0571 16.2247 19.0422 16.2286 19.0279C16.2325 19.0137 16.2394 19.0005 16.249 18.9892L16.606 18.4532C16.6132 18.4404 16.6232 18.4293 16.6353 18.4208C16.6473 18.4122 16.6611 18.4065 16.6756 18.4039C16.6902 18.4013 16.7051 18.402 16.7193 18.4058C16.7336 18.4097 16.7468 18.4167 16.758 18.4262C16.7709 18.4335 16.782 18.4435 16.7905 18.4555C16.799 18.4676 16.8048 18.4813 16.8074 18.4959C16.8099 18.5104 16.8093 18.5253 16.8054 18.5396C16.8015 18.5538 16.7946 18.567 16.785 18.5782L16.428 19.1142C16.4177 19.128 16.4042 19.1392 16.3887 19.1469C16.3733 19.1545 16.3562 19.1584 16.339 19.1582C16.3171 19.1568 16.2957 19.1511 16.276 19.1412Z" fill="#1F1F39"/>
<path d="M14.376 18.7659C14.3602 18.7419 14.3541 18.7128 14.3591 18.6845C14.3642 18.6562 14.3799 18.6309 14.403 18.6139L14.938 18.2569C14.962 18.241 14.9911 18.235 15.0194 18.24C15.0477 18.245 15.073 18.2607 15.09 18.2839C15.1065 18.308 15.1129 18.3376 15.1078 18.3664C15.1028 18.3951 15.0867 18.4208 15.063 18.4379L14.528 18.7929C14.5088 18.8039 14.4871 18.8097 14.465 18.8099C14.4478 18.81 14.4307 18.8061 14.4153 18.7985C14.3998 18.7908 14.3864 18.7797 14.376 18.7659Z" fill="#1F1F39"/>
<path d="M18.1958 19.2288V18.7828C18.1963 18.7546 18.2078 18.7276 18.2277 18.7077C18.2477 18.6877 18.2746 18.6763 18.3028 18.6758C18.3306 18.6777 18.3567 18.6895 18.3764 18.7092C18.3961 18.7289 18.4079 18.755 18.4098 18.7828V19.2288C18.411 19.2432 18.4091 19.2577 18.4041 19.2712C18.3992 19.2848 18.3914 19.2972 18.3812 19.3074C18.371 19.3177 18.3587 19.3256 18.3452 19.3307C18.3317 19.3358 18.3172 19.3378 18.3028 19.3368C18.2744 19.3363 18.2473 19.3247 18.2274 19.3045C18.2074 19.2843 18.1961 19.2572 18.1958 19.2288V19.2288Z" fill="#1F1F39"/>
<path d="M19.893 18.999L19.714 18.551C19.7085 18.5375 19.7058 18.523 19.7061 18.5085C19.7063 18.4939 19.7094 18.4795 19.7153 18.4662C19.7212 18.4529 19.7297 18.4408 19.7403 18.4308C19.7509 18.4208 19.7634 18.4131 19.777 18.408C19.7905 18.4027 19.8048 18.4001 19.8193 18.4004C19.8337 18.4007 19.848 18.4039 19.8612 18.4098C19.8744 18.4156 19.8863 18.4241 19.8963 18.4346C19.9062 18.4451 19.9139 18.4575 19.919 18.471L20.098 18.917C20.1035 18.9305 20.1062 18.945 20.1059 18.9595C20.1057 18.9741 20.1026 18.9885 20.0967 19.0018C20.0908 19.0151 20.0823 19.0271 20.0717 19.0371C20.0611 19.0471 20.0487 19.0549 20.035 19.06C20.027 19.069 20.018 19.069 20 19.069C19.9773 19.0691 19.955 19.0625 19.936 19.0501C19.917 19.0376 19.902 19.0199 19.893 18.999Z" fill="#1F1F39"/>
<path d="M21.91 18.8736L21.285 18.5166C21.2592 18.502 21.2401 18.478 21.2317 18.4497C21.2233 18.4213 21.2263 18.3908 21.24 18.3646C21.2545 18.3388 21.2785 18.3197 21.3069 18.3113C21.3352 18.3029 21.3658 18.3059 21.392 18.3196L22.017 18.6766C22.0389 18.689 22.0561 18.7082 22.066 18.7314C22.0759 18.7545 22.0779 18.7802 22.0718 18.8046C22.0657 18.829 22.0517 18.8507 22.032 18.8664C22.0124 18.8821 21.9881 18.891 21.963 18.8916C21.9442 18.8896 21.9261 18.8834 21.91 18.8736Z" fill="#1F1F39"/>
<g opacity="0.592">
<g opacity="0.592">
<path opacity="0.592" d="M12.9881 31.8878C13.074 31.9325 13.168 31.9595 13.2646 31.9671C13.3612 31.9746 13.4583 31.9626 13.5501 31.9318C13.7821 31.8698 14.0231 31.7528 14.2551 31.8778C14.354 31.9319 14.4322 32.0173 14.4775 32.1206C14.5227 32.224 14.5324 32.3394 14.5051 32.4488C14.4871 32.5288 14.6121 32.5648 14.6301 32.4848C14.6557 32.3841 14.6562 32.2786 14.6316 32.1777C14.607 32.0768 14.558 31.9834 14.4889 31.9058C14.4198 31.8282 14.3327 31.7688 14.2353 31.7327C14.1378 31.6966 14.033 31.6849 13.9301 31.6988C13.7019 31.7689 13.4675 31.8168 13.2301 31.8418C12.9791 31.8248 12.9161 31.5928 12.8721 31.3698C12.8703 31.3614 12.8669 31.3535 12.8621 31.3465C12.8572 31.3395 12.8511 31.3335 12.8439 31.3288C12.8368 31.3242 12.8288 31.321 12.8204 31.3194C12.812 31.3179 12.8034 31.318 12.7951 31.3198C12.7867 31.3216 12.7788 31.3249 12.7718 31.3298C12.7648 31.3346 12.7588 31.3408 12.7541 31.3479C12.7495 31.3551 12.7463 31.3631 12.7447 31.3715C12.7432 31.3798 12.7433 31.3884 12.7451 31.3968C12.7603 31.5855 12.8472 31.7612 12.9881 31.8878Z" fill="#BFE3C6"/>
<path opacity="0.592" d="M11.7298 36.3239C11.8341 36.5219 11.9959 36.6836 12.1938 36.7879C12.3988 36.9129 12.6138 37.0739 12.5598 37.3409C12.4968 37.6299 12.2208 37.7879 11.9878 37.9209C11.9741 37.9309 11.9646 37.9457 11.9612 37.9624C11.9579 37.9791 11.9609 37.9964 11.9697 38.011C11.9785 38.0255 11.9924 38.0363 12.0087 38.0411C12.025 38.0459 12.0426 38.0444 12.0578 38.0369C12.3047 37.9231 12.5104 37.7359 12.6468 37.5009C12.6949 37.4012 12.7121 37.2894 12.6963 37.1798C12.6804 37.0702 12.6322 36.9679 12.5578 36.8859C12.3988 36.7159 12.1668 36.6359 12.0058 36.4749C11.9067 36.3749 11.8401 36.2474 11.8146 36.109C11.7891 35.9705 11.8059 35.8276 11.8628 35.6989C11.8808 35.6299 11.7468 35.6009 11.7208 35.6719C11.678 35.7755 11.6567 35.8867 11.6583 35.9988C11.6598 36.1109 11.6842 36.2215 11.7298 36.3239Z" fill="#BFE3C6"/>
<path opacity="0.592" d="M4.74889 33.9939C4.73105 33.9115 4.73861 33.8256 4.77057 33.7476C4.80252 33.6696 4.85738 33.6031 4.92789 33.5569C5.26689 33.3429 5.60589 33.6569 5.93689 33.6819C6.23689 33.7089 6.43689 33.4409 6.51689 33.1729C6.554 33.0396 6.56286 32.9 6.54288 32.7631C6.52291 32.6262 6.47454 32.495 6.40089 32.3779C6.39072 32.3648 6.37611 32.3558 6.35982 32.3528C6.34352 32.3497 6.32665 32.3526 6.3124 32.3611C6.29814 32.3696 6.28747 32.383 6.28241 32.3988C6.27734 32.4146 6.27822 32.4317 6.28489 32.4469C6.36866 32.5767 6.41471 32.7273 6.41788 32.8818C6.42106 33.0363 6.38125 33.1887 6.30289 33.3219C6.26596 33.4062 6.19868 33.4736 6.1144 33.5106C6.03012 33.5477 5.93499 33.5517 5.84789 33.5219C5.69049 33.4589 5.52955 33.4051 5.36589 33.3609C5.23401 33.3245 5.09379 33.3328 4.96714 33.3846C4.8405 33.4363 4.73456 33.5286 4.66589 33.6469C4.61541 33.7836 4.59994 33.9307 4.62089 34.0749C4.62935 34.2528 4.65616 34.4294 4.70089 34.6019C4.71889 34.6819 4.84389 34.6469 4.82589 34.5659C4.77838 34.3788 4.75255 34.1869 4.74889 33.9939Z" fill="#BFE3C6"/>
<path opacity="0.592" d="M9.26585 43.1337C9.30256 43.1205 9.34183 43.1161 9.38054 43.1208C9.41924 43.1255 9.45633 43.1391 9.48885 43.1607C9.61773 43.2464 9.73737 43.3452 9.84585 43.4557C10.0777 43.6501 10.3587 43.7767 10.6578 43.8217C10.7876 43.8421 10.9203 43.8328 11.0459 43.7944C11.1716 43.7561 11.2869 43.6898 11.3832 43.6004C11.4794 43.5111 11.5542 43.4011 11.6018 43.2786C11.6493 43.1562 11.6685 43.0246 11.6578 42.8937C11.6408 42.8127 11.5158 42.8477 11.5338 42.9287C11.5477 43.0844 11.5084 43.2403 11.4223 43.3709C11.3362 43.5014 11.2085 43.599 11.0598 43.6477C10.9022 43.6929 10.7363 43.7022 10.5746 43.6751C10.4128 43.6479 10.2591 43.5849 10.1248 43.4907C9.98349 43.3996 9.85121 43.2951 9.72985 43.1787C9.63759 43.0843 9.51976 43.0189 9.39085 42.9907C9.17685 42.9647 8.94485 43.1787 9.05185 43.3927C9.08785 43.4647 9.20385 43.4017 9.16785 43.3217C9.13185 43.2417 9.20385 43.1697 9.26585 43.1337Z" fill="#BFE3C6"/>
<path opacity="0.592" d="M18.3438 41.3855C18.352 41.5108 18.3904 41.6322 18.4557 41.7395C18.521 41.8467 18.6112 41.9366 18.7188 42.0015C18.9417 42.1715 19.2638 42.3225 19.3188 42.6265C19.3728 42.9655 18.9798 43.0375 18.7298 43.0105C18.6407 43.0015 18.6497 43.1355 18.7298 43.1445C18.8506 43.1697 18.9761 43.1615 19.0926 43.1206C19.2091 43.0797 19.3122 43.0077 19.3908 42.9125C19.4483 42.795 19.4637 42.6614 19.4344 42.5339C19.4051 42.4065 19.3328 42.293 19.2297 42.2125C19.0247 42.0075 18.7297 41.9125 18.5687 41.6595C18.5002 41.5064 18.483 41.3354 18.5196 41.1718C18.5561 41.0082 18.6446 40.8607 18.7718 40.7515C18.8257 40.6985 18.7278 40.6005 18.6738 40.6625C18.4785 40.8546 18.361 41.1121 18.3438 41.3855V41.3855Z" fill="#BFE3C6"/>
<path opacity="0.592" d="M25.824 42.9558C25.7602 43.07 25.729 43.1995 25.7337 43.3301C25.7385 43.4608 25.779 43.5876 25.851 43.6968C25.9401 43.8263 26.0035 43.9715 26.038 44.1248C26.0553 44.2746 26.0137 44.4252 25.922 44.5448C25.8739 44.6046 25.8138 44.6536 25.7456 44.6886C25.6774 44.7236 25.6026 44.7439 25.526 44.7482C25.4494 44.7524 25.3728 44.7405 25.3011 44.7132C25.2295 44.686 25.1643 44.6439 25.11 44.5898C25.0967 44.5766 25.0787 44.5691 25.06 44.5691C25.0412 44.5691 25.0232 44.5766 25.01 44.5898C24.9967 44.6031 24.9893 44.6211 24.9893 44.6398C24.9893 44.6586 24.9967 44.6766 25.01 44.6898C25.1113 44.7841 25.2378 44.8469 25.3741 44.8707C25.5104 44.8945 25.6507 44.8782 25.778 44.8238C25.9008 44.7641 26.0035 44.6696 26.0734 44.5521C26.1432 44.4347 26.1771 44.2994 26.171 44.1628C26.155 43.8488 25.86 43.6248 25.86 43.3038C25.8627 43.1554 25.921 43.0135 26.0234 42.906C26.1258 42.7986 26.2649 42.7336 26.413 42.7238C26.4307 42.7238 26.4478 42.7168 26.4603 42.7042C26.4729 42.6917 26.48 42.6746 26.48 42.6568C26.48 42.6391 26.4729 42.622 26.4603 42.6095C26.4478 42.5969 26.4307 42.5898 26.413 42.5898C26.2917 42.5956 26.174 42.6322 26.0709 42.6963C25.9678 42.7603 25.8828 42.8497 25.824 42.9558Z" fill="#BFE3C6"/>
<path opacity="0.592" d="M21.8881 30.6552C22.0025 30.8933 22.1598 31.1082 22.3521 31.2892C22.4591 31.4052 22.5521 31.5752 22.3791 31.6822C22.2291 31.7638 22.0581 31.7986 21.8881 31.7822C21.8703 31.7822 21.8533 31.7893 21.8407 31.8019C21.8282 31.8144 21.8211 31.8315 21.8211 31.8492C21.8211 31.867 21.8282 31.884 21.8407 31.8966C21.8533 31.9092 21.8703 31.9162 21.8881 31.9162C22.1111 31.9252 22.5041 31.8802 22.5931 31.6392C22.6821 31.3982 22.4501 31.2002 22.3071 31.0482C22.0876 30.8389 21.9593 30.5515 21.9501 30.2482C21.95 30.1149 21.9911 29.9847 22.0677 29.8756C22.1443 29.7664 22.2527 29.6835 22.3781 29.6382C22.3872 29.6359 22.3957 29.6319 22.4032 29.6263C22.4107 29.6207 22.417 29.6137 22.4218 29.6056C22.4266 29.5976 22.4297 29.5887 22.4311 29.5795C22.4324 29.5702 22.4319 29.5608 22.4296 29.5517C22.4273 29.5427 22.4233 29.5342 22.4177 29.5267C22.4121 29.5192 22.4051 29.5128 22.397 29.5081C22.389 29.5033 22.3801 29.5001 22.3708 29.4988C22.3616 29.4974 22.3522 29.4979 22.3431 29.5002C22.2351 29.5433 22.137 29.608 22.055 29.6904C21.9729 29.7728 21.9086 29.8712 21.8659 29.9794C21.8233 30.0876 21.8033 30.2034 21.8071 30.3196C21.8109 30.4358 21.8385 30.5501 21.8881 30.6552Z" fill="#BFE3C6"/>
<path opacity="0.592" d="M21.781 35.8584C22.049 36.0014 22.102 36.3314 22.192 36.5904C22.2251 36.718 22.2875 36.8361 22.3743 36.9352C22.4612 37.0344 22.57 37.1118 22.692 37.1614C22.9546 37.2551 23.2415 37.2551 23.504 37.1614C23.654 37.0932 23.7888 36.9956 23.9006 36.8746C24.0124 36.7535 24.0989 36.6113 24.155 36.4564C24.191 36.3764 24.055 36.3404 24.03 36.4204C23.9756 36.5676 23.8899 36.7013 23.7789 36.8123C23.668 36.9233 23.5343 37.009 23.387 37.0634C23.2417 37.1068 23.0881 37.1148 22.939 37.0868C22.79 37.0588 22.6497 36.9956 22.53 36.9024C22.316 36.7024 22.298 36.3844 22.191 36.1254C22.1495 36.0146 22.0827 35.9149 21.9959 35.8344C21.9091 35.7538 21.8047 35.6946 21.691 35.6614C21.5602 35.6292 21.4233 35.6312 21.2936 35.6673C21.1638 35.7034 21.0455 35.7723 20.95 35.8674C20.879 35.9474 20.968 36.0374 21.03 35.9744C21.1249 35.875 21.25 35.8096 21.3858 35.7887C21.5216 35.7677 21.6606 35.7922 21.781 35.8584Z" fill="#BFE3C6"/>
<path opacity="0.592" d="M30.0017 33.334C29.9279 33.5605 29.93 33.8049 30.0077 34.03C30.0527 34.262 30.0617 34.53 29.8287 34.664C29.7264 34.7157 29.6087 34.7278 29.498 34.6981C29.3873 34.6684 29.2914 34.599 29.2287 34.503C29.1837 34.432 29.0677 34.503 29.1127 34.574C29.1704 34.6654 29.2512 34.7399 29.3469 34.7901C29.4426 34.8403 29.5498 34.8644 29.6577 34.86C29.7646 34.8514 29.8668 34.8123 29.9522 34.7475C30.0376 34.6826 30.1027 34.5947 30.1397 34.494C30.1813 34.2406 30.1646 33.981 30.0907 33.735C30.0621 33.6038 30.0842 33.4666 30.1527 33.351C30.1816 33.3036 30.2251 33.2667 30.2766 33.2458C30.3281 33.2249 30.3849 33.2211 30.4387 33.235C30.5187 33.244 30.5547 33.119 30.4747 33.092C30.38 33.0709 30.2809 33.0835 30.1946 33.1277C30.1082 33.1719 30.04 33.2449 30.0017 33.334Z" fill="#BFE3C6"/>
</g>
<path opacity="0.592" d="M35.4336 38.5272L35.4428 38.6157L28.935 39.2936L28.9258 39.2051L35.4336 38.5272Z" fill="#BFE3C6"/>
<path opacity="0.592" d="M6.7565 38.1662L6.75841 38.2552L0.3149 38.3937L0.312988 38.3047L6.7565 38.1662Z" fill="#BFE3C6"/>
</g>
</svg>
