<svg id="Graphic_Design" data-name="Graphic Design" xmlns="http://www.w3.org/2000/svg" viewBox="0 0 200 200"><defs><style>.cls-1{fill:#0d5cef;}.cls-2{fill:#bbc8fe;}.cls-3,.cls-4,.cls-6{fill:none;stroke-miterlimit:10;}.cls-3{stroke:#bbc8fe;stroke-width:0.5px;}.cls-4{stroke:#0d5cef;}.cls-5{fill:#6583fe;}.cls-6{stroke:#2626bc;}</style></defs><circle class="cls-1" cx="67" cy="143.88" r="3"/><circle class="cls-1" cx="135.7" cy="76.38" r="4.5"/><circle class="cls-2" cx="117.7" cy="130.38" r="13.5"/><path class="cls-2" d="M65.41,52.53,66.63,55a.64.64,0,0,0,.5.37l2.71.39a.67.67,0,0,1,.37,1.15l-2,1.91a.7.7,0,0,0-.19.6l.46,2.7a.67.67,0,0,1-1,.71l-2.43-1.28a.68.68,0,0,0-.62,0l-2.42,1.28a.67.67,0,0,1-1-.71l.46-2.7a.67.67,0,0,0-.19-.6l-2-1.91a.67.67,0,0,1,.37-1.15l2.71-.39A.68.68,0,0,0,63,55l1.21-2.45A.67.67,0,0,1,65.41,52.53Z"/><path class="cls-2" d="M129.2,31.73l.48,1a.27.27,0,0,0,.21.15L131,33a.27.27,0,0,1,.15.46l-.78.77a.24.24,0,0,0-.08.24l.18,1.08a.26.26,0,0,1-.39.28l-1-.51a.28.28,0,0,0-.25,0l-1,.51a.27.27,0,0,1-.4-.28l.19-1.08a.27.27,0,0,0-.08-.24l-.78-.77a.27.27,0,0,1,.15-.46l1.08-.16a.27.27,0,0,0,.21-.15l.48-1A.28.28,0,0,1,129.2,31.73Z"/><circle class="cls-3" cx="45.7" cy="112.38" r="4.5"/><circle class="cls-4" cx="162.7" cy="103.38" r="4.5"/><path class="cls-5" d="M93.82,63.44,74.6,99.68l13.61,26c5.38,7.23,3.91,18.42-5.06,21.88v12.34h-5V143.5a8.32,8.32,0,0,0,7.37-12.18L69,99.66l29.71-56C98.86,55.3,99.6,53.25,93.82,63.44Z"/><path class="cls-6" d="M98.66,43.65,69,99.67l16.57,31.65a8.31,8.31,0,0,1-7.37,12.18v16.38h43.68V143.5a8.32,8.32,0,0,1-7.37-12.18L131,99.67l-29.7-56-.51,58.3a3.43,3.43,0,1,1-1.68,0Z"/><path class="cls-4" d="M98.66,43.65,69,99.67l16.57,31.65a8.31,8.31,0,0,1-7.37,12.18v16.38h43.68V143.5a8.32,8.32,0,0,1-7.37-12.18L131,99.67l-29.7-56-.51,58.3a3.43,3.43,0,1,1-1.68,0Z"/></svg>