<svg xmlns="http://www.w3.org/2000/svg" viewBox="0 0 200 200"><defs><style>.cls-1{fill:#bbc8fe;}.cls-2{fill:#6583fe;}.cls-3,.cls-5{fill:none;stroke-miterlimit:10;}.cls-3{stroke:#0d5cef;}.cls-4{fill:#0d5cef;}.cls-5{stroke:#bbc8fe;}</style></defs><g id="Personal_Development" data-name="Personal Development"><rect class="cls-1" x="108.6" y="53.92" width="24.27" height="24.27"/><path class="cls-2" d="M102.91,101.24a20.27,20.27,0,0,0-17.33,20V144.2h-5.8V121.27A20.22,20.22,0,0,1,100,101,21.82,21.82,0,0,1,102.91,101.24Z"/><path class="cls-2" d="M102.35,89.74a15.16,15.16,0,0,1-2.36.17,17.06,17.06,0,0,1,0-34.12,14,14,0,0,1,2.36.18,17,17,0,0,0,0,33.77Z"/><circle class="cls-3" cx="100" cy="72.86" r="17.06"/><path class="cls-3" d="M108.6,132.29h5.08v11.92H79.78V121.27A20.21,20.21,0,0,1,100,101.05a20.56,20.56,0,0,1,2.85.2A20.25,20.25,0,0,1,120,118.4Z"/><polygon class="cls-3" points="131.84 132.29 126.77 132.29 126.77 152 113.67 152 113.67 132.29 108.59 132.29 120.03 118.4 120.22 118.15 131.84 132.29"/><path class="cls-4" d="M92.8,131.93H90.15a10.5,10.5,0,0,0-1.28-3.06h0L90.76,127a1.07,1.07,0,0,0,0-1.52l-2-2a1.09,1.09,0,0,0-1.53,0l-1.88,1.88h0a10.87,10.87,0,0,0-3.06-1.27V121.4a1.08,1.08,0,0,0-1.08-1.07H78.36a1.07,1.07,0,0,0-1.08,1.07v2.66a10.75,10.75,0,0,0-3.06,1.27h0l-1.89-1.88a1.07,1.07,0,0,0-1.52,0l-2,2a1.07,1.07,0,0,0,0,1.52l1.88,1.89h0a10.75,10.75,0,0,0-1.27,3.06H66.75A1.07,1.07,0,0,0,65.68,133v2.84a1.08,1.08,0,0,0,1.07,1.08h2.66A10.87,10.87,0,0,0,70.68,140h0l-1.88,1.88a1.09,1.09,0,0,0,0,1.53l2,2a1.07,1.07,0,0,0,1.52,0l1.89-1.88h0a10.75,10.75,0,0,0,3.06,1.27v2.66a1.07,1.07,0,0,0,1.08,1.07H81.2a1.08,1.08,0,0,0,1.08-1.07V144.8a10.87,10.87,0,0,0,3.06-1.27h0l1.88,1.88a1.09,1.09,0,0,0,1.53,0l2-2a1.09,1.09,0,0,0,0-1.53L88.87,140h0a10.61,10.61,0,0,0,1.28-3.06H92.8a1.08,1.08,0,0,0,1.08-1.08V133A1.08,1.08,0,0,0,92.8,131.93Zm-13,9.71A7.21,7.21,0,1,1,87,134.43,7.21,7.21,0,0,1,79.78,141.64Z"/><rect class="cls-4" x="69.4" y="93.22" width="5.65" height="5.65"/><polygon class="cls-3" points="151.67 35.28 157.79 45.87 163.91 35.28 151.67 35.28"/><polygon class="cls-1" points="36.56 112.58 35.34 132.67 53.34 123.69 36.56 112.58"/><polygon class="cls-1" points="148.66 146.61 143.72 151.07 150.06 153.11 148.66 146.61"/><rect class="cls-1" x="53.34" y="24.61" width="3.12" height="71.44"/><rect class="cls-5" x="61.83" y="166.22" width="15.14" height="15.14"/></g></svg>