<svg xmlns="http://www.w3.org/2000/svg" viewBox="0 0 200 200"><defs><style>.cls-1{fill:#6583fe;}.cls-2{fill:#bbc8fe;}.cls-3,.cls-4{fill:none;}.cls-3{stroke:#bbc8fe;}.cls-3,.cls-4,.cls-6{stroke-miterlimit:10;}.cls-4,.cls-6{stroke:#0d5cef;}.cls-5{fill:#0d5cef;}.cls-6{fill:#fff;}</style></defs><g id="Video_Editing" data-name="Video Editing"><rect class="cls-1" x="37.37" y="123.83" width="125.25" height="7.11"/><circle class="cls-2" cx="45.99" cy="54.79" r="26.61"/><circle class="cls-3" cx="158.4" cy="155.46" r="15.4"/><circle class="cls-4" cx="19.98" cy="118.16" r="3.85"/><rect class="cls-2" x="146.3" y="40.14" width="25.29" height="25.29"/><rect class="cls-5" x="93.02" y="166.52" width="6.7" height="6.7"/><rect class="cls-2" x="106.5" y="27.5" width="5.89" height="5.89"/><polygon class="cls-4" points="141.75 87.24 141.75 122.01 150.13 113.63 162.62 113.63 162.62 130.93 37.37 130.93 37.37 50.78 162.62 50.78 162.62 87.24 141.75 87.24"/><polygon class="cls-5" points="123.68 89.24 76.32 61.9 76.32 116.58 123.68 89.24"/><rect class="cls-4" x="36.52" y="134.78" width="126.97" height="14.44"/><rect class="cls-5" x="37.9" y="136.23" width="18.24" height="11.55"/><rect class="cls-5" x="59.09" y="136.23" width="18.24" height="11.55"/><rect class="cls-5" x="80.28" y="136.23" width="18.24" height="11.55"/><rect class="cls-5" x="101.47" y="136.23" width="18.24" height="11.55"/><rect class="cls-5" x="122.66" y="136.23" width="18.24" height="11.55"/><rect class="cls-5" x="143.85" y="136.23" width="18.24" height="11.55"/><circle class="cls-2" cx="42.2" cy="178.05" r="4.83"/><line class="cls-6" x1="153.17" y1="92.54" x2="182.37" y2="92.54"/><circle class="cls-6" cx="173.84" cy="92.54" r="2.28"/><line class="cls-6" x1="153.17" y1="99.38" x2="182.37" y2="99.38"/><circle class="cls-6" cx="158.84" cy="99.38" r="2.28"/><line class="cls-6" x1="153.17" y1="106.22" x2="182.37" y2="106.22"/><circle class="cls-6" cx="168.84" cy="106.22" r="2.28"/><path class="cls-1" d="M141.75,87.21V122l8.55-8.55h38.18v-3.08h-40l-3.81,4.41V87.21Z"/><path class="cls-4" d="M141.75,122l8.39-8.38h38.34V87.24H141.75Z"/></g></svg>