<svg xmlns="http://www.w3.org/2000/svg" viewBox="0 0 200 200"><defs><style>.cls-1,.cls-4{fill:none;stroke-miterlimit:10;}.cls-1{stroke:#bbc8fe;}.cls-2{fill:#bbc8fe;}.cls-3{fill:#6583fe;}.cls-4{stroke:#0d5cef;}.cls-5{fill:#0d5cef;}</style></defs><g id="Web_Dev" data-name="Web Dev"><rect class="cls-1" x="167.22" y="154.52" width="14.27" height="14.27"/><polygon class="cls-2" points="65.47 89.68 55.38 32.91 11.26 70.04 65.47 89.68"/><polygon class="cls-3" points="35.76 146.08 156.65 146.08 156.65 140.64 164.24 140.64 164.24 152.56 35.76 152.56 35.76 146.08"/><rect class="cls-3" x="35.76" y="55.18" width="90.09" height="6.84"/><rect class="cls-3" x="41.98" y="115.12" width="68.54" height="5.04"/><rect class="cls-3" x="118.8" y="74.28" width="5.48" height="29.1"/><rect class="cls-2" x="52.13" y="132.41" width="10.56" height="10.56"/><rect class="cls-2" x="136.32" y="83.49" width="46.42" height="12.9"/><rect class="cls-2" x="18.08" y="97.22" width="3.87" height="53.63"/><polygon class="cls-2" points="124.07 43.38 132.44 40.55 125.8 34.72 124.07 43.38"/><rect class="cls-4" x="35.76" y="55.18" width="128.48" height="97.38"/><rect class="cls-4" x="125.84" y="55.18" width="38.4" height="13.69"/><rect class="cls-4" x="153.64" y="59.02" width="5.89" height="5.89"/><rect class="cls-4" x="142.35" y="59.02" width="5.89" height="5.89"/><rect class="cls-4" x="131.05" y="59.02" width="5.89" height="5.89"/><line class="cls-4" x1="125.84" y1="62.02" x2="35.76" y2="62.02"/><polygon class="cls-4" points="124.16 74.28 124.16 103.38 110.52 103.38 110.52 120.16 41.98 120.16 41.98 74.28 124.16 74.28"/><rect class="cls-4" x="110.52" y="103.38" width="46.5" height="33.72"/><path class="cls-5" d="M123,145.24h-4.64a18.45,18.45,0,0,0-2.22-5.35h0l3.29-3.29a1.89,1.89,0,0,0,0-2.66l-3.51-3.5a1.87,1.87,0,0,0-2.66,0l-3.28,3.28h0a18.68,18.68,0,0,0-5.35-2.22v-4.64A1.89,1.89,0,0,0,102.7,125h-5a1.88,1.88,0,0,0-1.88,1.88v4.64a18.68,18.68,0,0,0-5.35,2.22h0l-3.28-3.28a1.87,1.87,0,0,0-2.66,0l-3.51,3.5a1.89,1.89,0,0,0,0,2.66l3.29,3.29h0a18.18,18.18,0,0,0-2.22,5.35H77.49a1.88,1.88,0,0,0-1.88,1.88v5A1.88,1.88,0,0,0,77.49,154h4.64a18.4,18.4,0,0,0,2.22,5.35h0l-3.29,3.28a1.89,1.89,0,0,0,0,2.66l3.51,3.51a1.89,1.89,0,0,0,2.66,0l3.28-3.28h0a18.66,18.66,0,0,0,5.35,2.21v4.65a1.88,1.88,0,0,0,1.88,1.88h5a1.89,1.89,0,0,0,1.89-1.88v-4.65a18.66,18.66,0,0,0,5.35-2.21h0l3.28,3.28a1.89,1.89,0,0,0,2.66,0l3.51-3.51a1.89,1.89,0,0,0,0-2.66l-3.29-3.28h0a18.68,18.68,0,0,0,2.22-5.35H123a1.88,1.88,0,0,0,1.88-1.88v-5A1.88,1.88,0,0,0,123,145.24Zm-22.74,16.94a12.58,12.58,0,1,1,12.59-12.58A12.58,12.58,0,0,1,100.22,162.18Z"/><path class="cls-5" d="M70.8,96.39H64.37l10.5-6.65v4.78Zm4.07,6.66-10.5-6.66H70.8l4.07,2Z"/><path class="cls-5" d="M78.39,110.34H74.54l9.63-28.17H88Z"/><path class="cls-5" d="M86.73,89.74l10.5,6.65H90.8l-4.07-1.87Zm4.07,6.65h6.43l-10.5,6.66V98.39Z"/><line class="cls-4" x1="115.68" y1="109.34" x2="152.43" y2="109.34"/><line class="cls-4" x1="115.68" y1="113.34" x2="152.43" y2="113.34"/><line class="cls-4" x1="115.68" y1="117.34" x2="152.43" y2="117.34"/><line class="cls-4" x1="115.68" y1="121.34" x2="152.43" y2="121.34"/><rect class="cls-4" x="169.81" y="23.82" width="11.64" height="11.64"/><circle class="cls-4" cx="24.21" cy="179.76" r="6.12"/></g></svg>